<svg xmlns="http://www.w3.org/2000/svg" viewBox="0 0 900 320" width="900" height="320">
<defs>
<linearGradient id="bg" x1="0" y1="0" x2="0" y2="1">
<stop offset="0%" stop-color="#0d1117"/>
<stop offset="100%" stop-color="#161b22"/>
</linearGradient>
<style>
@keyframes ghostFloat{0%,100%{transform:translateY(0)}50%{transform:translateY(-5px)}}
@keyframes ghostGlow{0%,100%{filter:drop-shadow(0 0 3px #8b5cf6)}50%{filter:drop-shadow(0 0 10px #c084fc)}}
@keyframes twinkle{0%,100%{opacity:0.2}50%{opacity:1}}
.ghost{animation:ghostFloat 3s ease-in-out infinite,ghostGlow 2s ease-in-out infinite}
.s1{animation-delay:0s}.s2{animation-delay:0.3s}.s3{animation-delay:0.7s}
.s4{animation-delay:1s}.s5{animation-delay:1.3s}.s6{animation-delay:1.7s}
.s7{animation-delay:2s}.s8{animation-delay:2.3s}.s9{animation-delay:2.7s}
.s10{animation-delay:3s}.s11{animation-delay:3.3s}.s12{animation-delay:3.7s}
.star{animation:twinkle 3s ease-in-out infinite}
</style>
</defs>
<rect width="900" height="320" fill="url(#bg)" rx="12"/>
<text x="450" y="32" text-anchor="middle" font-family="system-ui,sans-serif" font-size="20" font-weight="800" fill="#c084fc">👻 GHOST HUNT</text>
<text x="450" y="48" text-anchor="middle" font-family="monospace" font-size="11" fill="#6b7280">Ghosts hide in contribution cells — keep committing to catch them!</text>
<circle cx="50" cy="25" r="1.2" fill="#c084fc" class="star s1"/>
<circle cx="150" cy="20" r="1.2" fill="#c084fc" class="star s2"/>
<circle cx="300" cy="28" r="1.2" fill="#c084fc" class="star s3"/>
<circle cx="500" cy="22" r="1.2" fill="#c084fc" class="star s4"/>
<circle cx="700" cy="30" r="1.2" fill="#c084fc" class="star s5"/>
<circle cx="830" cy="18" r="1.2" fill="#c084fc" class="star s6"/>
<rect x="20" y="55" width="13" height="13" rx="2" fill="#006d32"/>
<rect x="20" y="71" width="13" height="13" rx="2" fill="#161b22"/>
<rect x="20" y="87" width="13" height="13" rx="2" fill="#161b22"/>
<rect x="20" y="103" width="13" height="13" rx="2" fill="#161b22"/>
<rect x="20" y="119" width="13" height="13" rx="2" fill="#006d32"/>
<rect x="20" y="135" width="13" height="13" rx="2" fill="#006d32"/>
<rect x="20" y="151" width="13" height="13" rx="2" fill="#26a641"/>
<rect x="36" y="55" width="13" height="13" rx="2" fill="#0e4429"/>
<rect x="36" y="71" width="13" height="13" rx="2" fill="#161b22"/>
<rect x="36" y="87" width="13" height="13" rx="2" fill="#161b22"/>
<rect x="36" y="103" width="13" height="13" rx="2" fill="#0e4429"/>
<rect x="36" y="119" width="13" height="13" rx="2" fill="#161b22"/>
<rect x="36" y="135" width="13" height="13" rx="2" fill="#161b22"/>
<rect x="36" y="151" width="13" height="13" rx="2" fill="#006d32"/>
<rect x="52" y="55" width="13" height="13" rx="2" fill="#0e4429"/>
<rect x="52" y="71" width="13" height="13" rx="2" fill="#161b22"/>
<rect x="52" y="87" width="13" height="13" rx="2" fill="#0e4429"/>
<rect x="52" y="103" width="13" height="13" rx="2" fill="#26a641"/>
<rect x="52" y="119" width="13" height="13" rx="2" fill="#26a641"/>
<rect x="52" y="135" width="13" height="13" rx="2" fill="#161b22"/>
<rect x="52" y="151" width="13" height="13" rx="2" fill="#161b22"/>
<rect x="68" y="55" width="13" height="13" rx="2" fill="#39d353"/>
<rect x="68" y="71" width="13" height="13" rx="2" fill="#161b22"/>
<rect x="68" y="87" width="13" height="13" rx="2" fill="#161b22"/>
<rect x="68" y="103" width="13" height="13" rx="2" fill="#26a641"/>
<rect x="68" y="119" width="13" height="13" rx="2" fill="#26a641"/>
<rect x="68" y="135" width="13" height="13" rx="2" fill="#0e4429"/>
<rect x="68" y="151" width="13" height="13" rx="2" fill="#39d353"/>
<rect x="84" y="55" width="13" height="13" rx="2" fill="#0e4429"/>
<rect x="84" y="71" width="13" height="13" rx="2" fill="#26a641"/>
<rect x="84" y="87" width="13" height="13" rx="2" fill="#26a641"/>
<rect x="84" y="103" width="13" height="13" rx="2" fill="#006d32"/>
<rect x="84" y="119" width="13" height="13" rx="2" fill="#161b22"/>
<rect x="84" y="135" width="13" height="13" rx="2" fill="#161b22"/>
<rect x="84" y="151" width="13" height="13" rx="2" fill="#161b22"/>
<rect x="100" y="55" width="13" height="13" rx="2" fill="#161b22"/>
<rect x="100" y="71" width="13" height="13" rx="2" fill="#161b22"/>
<rect x="100" y="87" width="13" height="13" rx="2" fill="#161b22"/>
<rect x="100" y="103" width="13" height="13" rx="2" fill="#161b22"/>
<rect x="100" y="119" width="13" height="13" rx="2" fill="#006d32"/>
<rect x="100" y="135" width="13" height="13" rx="2" fill="#0e4429"/>
<rect x="100" y="151" width="13" height="13" rx="2" fill="#0e4429"/>
<rect x="116" y="55" width="13" height="13" rx="2" fill="#161b22"/>
<rect x="116" y="71" width="13" height="13" rx="2" fill="#161b22"/>
<rect x="116" y="87" width="13" height="13" rx="2" fill="#39d353"/>
<rect x="116" y="103" width="13" height="13" rx="2" fill="#006d32"/>
<rect x="116" y="119" width="13" height="13" rx="2" fill="#161b22"/>
<rect x="116" y="135" width="13" height="13" rx="2" fill="#006d32"/>
<rect x="116" y="151" width="13" height="13" rx="2" fill="#161b22"/>
<rect x="132" y="55" width="13" height="13" rx="2" fill="#0e4429"/>
<rect x="132" y="71" width="13" height="13" rx="2" fill="#39d353"/>
<rect x="132" y="87" width="13" height="13" rx="2" fill="#0e4429"/>
<rect x="132" y="103" width="13" height="13" rx="2" fill="#006d32"/>
<rect x="132" y="119" width="13" height="13" rx="2" fill="#26a641"/>
<rect x="132" y="135" width="13" height="13" rx="2" fill="#161b22"/>
<rect x="132" y="151" width="13" height="13" rx="2" fill="#161b22"/>
<rect x="148" y="55" width="13" height="13" rx="2" fill="#161b22"/>
<rect x="148" y="71" width="13" height="13" rx="2" fill="#161b22"/>
<rect x="148" y="87" width="13" height="13" rx="2" fill="#161b22"/>
<rect x="148" y="103" width="13" height="13" rx="2" fill="#39d353"/>
<rect x="148" y="119" width="13" height="13" rx="2" fill="#161b22"/>
<rect x="148" y="135" width="13" height="13" rx="2" fill="#006d32"/>
<rect x="148" y="151" width="13" height="13" rx="2" fill="#0e4429"/>
<rect x="164" y="55" width="13" height="13" rx="2" fill="#39d353"/>
<rect x="164" y="71" width="13" height="13" rx="2" fill="#161b22"/>
<rect x="164" y="87" width="13" height="13" rx="2" fill="#161b22"/>
<rect x="164" y="103" width="13" height="13" rx="2" fill="#0e4429"/>
<rect x="164" y="119" width="13" height="13" rx="2" fill="#161b22"/>
<rect x="164" y="135" width="13" height="13" rx="2" fill="#0e4429"/>
<rect x="164" y="151" width="13" height="13" rx="2" fill="#26a641"/>
<rect x="180" y="55" width="13" height="13" rx="2" fill="#161b22"/>
<rect x="180" y="71" width="13" height="13" rx="2" fill="#39d353"/>
<rect x="180" y="87" width="13" height="13" rx="2" fill="#161b22"/>
<rect x="180" y="103" width="13" height="13" rx="2" fill="#161b22"/>
<rect x="180" y="119" width="13" height="13" rx="2" fill="#161b22"/>
<rect x="180" y="135" width="13" height="13" rx="2" fill="#006d32"/>
<rect x="180" y="151" width="13" height="13" rx="2" fill="#26a641"/>
<rect x="196" y="55" width="13" height="13" rx="2" fill="#161b22"/>
<rect x="196" y="71" width="13" height="13" rx="2" fill="#0e4429"/>
<rect x="196" y="87" width="13" height="13" rx="2" fill="#39d353"/>
<rect x="196" y="103" width="13" height="13" rx="2" fill="#39d353"/>
<rect x="196" y="119" width="13" height="13" rx="2" fill="#161b22"/>
<rect x="196" y="135" width="13" height="13" rx="2" fill="#006d32"/>
<rect x="196" y="151" width="13" height="13" rx="2" fill="#006d32"/>
<rect x="212" y="55" width="13" height="13" rx="2" fill="#0e4429"/>
<rect x="212" y="71" width="13" height="13" rx="2" fill="#161b22"/>
<rect x="212" y="87" width="13" height="13" rx="2" fill="#006d32"/>
<rect x="212" y="103" width="13" height="13" rx="2" fill="#161b22"/>
<rect x="212" y="119" width="13" height="13" rx="2" fill="#0e4429"/>
<rect x="212" y="135" width="13" height="13" rx="2" fill="#0e4429"/>
<rect x="212" y="151" width="13" height="13" rx="2" fill="#39d353"/>
<rect x="228" y="55" width="13" height="13" rx="2" fill="#161b22"/>
<rect x="228" y="71" width="13" height="13" rx="2" fill="#0e4429"/>
<rect x="228" y="87" width="13" height="13" rx="2" fill="#161b22"/>
<rect x="228" y="103" width="13" height="13" rx="2" fill="#39d353"/>
<rect x="228" y="119" width="13" height="13" rx="2" fill="#161b22"/>
<rect x="228" y="135" width="13" height="13" rx="2" fill="#006d32"/>
<rect x="228" y="151" width="13" height="13" rx="2" fill="#006d32"/>
<rect x="244" y="55" width="13" height="13" rx="2" fill="#161b22"/>
<rect x="244" y="71" width="13" height="13" rx="2" fill="#006d32"/>
<rect x="244" y="87" width="13" height="13" rx="2" fill="#0e4429"/>
<rect x="244" y="103" width="13" height="13" rx="2" fill="#006d32"/>
<rect x="244" y="119" width="13" height="13" rx="2" fill="#0e4429"/>
<rect x="244" y="135" width="13" height="13" rx="2" fill="#161b22"/>
<rect x="244" y="151" width="13" height="13" rx="2" fill="#161b22"/>
<rect x="260" y="55" width="13" height="13" rx="2" fill="#161b22"/>
<rect x="260" y="71" width="13" height="13" rx="2" fill="#39d353"/>
<rect x="260" y="87" width="13" height="13" rx="2" fill="#26a641"/>
<rect x="260" y="103" width="13" height="13" rx="2" fill="#161b22"/>
<rect x="260" y="119" width="13" height="13" rx="2" fill="#26a641"/>
<rect x="260" y="135" width="13" height="13" rx="2" fill="#161b22"/>
<rect x="260" y="151" width="13" height="13" rx="2" fill="#0e4429"/>
<rect x="276" y="55" width="13" height="13" rx="2" fill="#161b22"/>
<rect x="276" y="71" width="13" height="13" rx="2" fill="#006d32"/>
<rect x="276" y="87" width="13" height="13" rx="2" fill="#006d32"/>
<rect x="276" y="103" width="13" height="13" rx="2" fill="#161b22"/>
<rect x="276" y="119" width="13" height="13" rx="2" fill="#0e4429"/>
<rect x="276" y="135" width="13" height="13" rx="2" fill="#0e4429"/>
<rect x="276" y="151" width="13" height="13" rx="2" fill="#161b22"/>
<rect x="292" y="55" width="13" height="13" rx="2" fill="#26a641"/>
<rect x="292" y="71" width="13" height="13" rx="2" fill="#161b22"/>
<rect x="292" y="87" width="13" height="13" rx="2" fill="#0e4429"/>
<rect x="292" y="103" width="13" height="13" rx="2" fill="#006d32"/>
<rect x="292" y="119" width="13" height="13" rx="2" fill="#161b22"/>
<rect x="292" y="135" width="13" height="13" rx="2" fill="#161b22"/>
<rect x="292" y="151" width="13" height="13" rx="2" fill="#39d353"/>
<rect x="308" y="55" width="13" height="13" rx="2" fill="#0e4429"/>
<rect x="308" y="71" width="13" height="13" rx="2" fill="#0e4429"/>
<rect x="308" y="87" width="13" height="13" rx="2" fill="#161b22"/>
<rect x="308" y="103" width="13" height="13" rx="2" fill="#161b22"/>
<rect x="308" y="119" width="13" height="13" rx="2" fill="#161b22"/>
<rect x="308" y="135" width="13" height="13" rx="2" fill="#0e4429"/>
<rect x="308" y="151" width="13" height="13" rx="2" fill="#161b22"/>
<rect x="324" y="55" width="13" height="13" rx="2" fill="#161b22"/>
<rect x="324" y="71" width="13" height="13" rx="2" fill="#161b22"/>
<rect x="324" y="87" width="13" height="13" rx="2" fill="#006d32"/>
<rect x="324" y="103" width="13" height="13" rx="2" fill="#161b22"/>
<rect x="324" y="119" width="13" height="13" rx="2" fill="#39d353"/>
<rect x="324" y="135" width="13" height="13" rx="2" fill="#161b22"/>
<rect x="324" y="151" width="13" height="13" rx="2" fill="#161b22"/>
<rect x="340" y="55" width="13" height="13" rx="2" fill="#006d32"/>
<rect x="340" y="71" width="13" height="13" rx="2" fill="#161b22"/>
<rect x="340" y="87" width="13" height="13" rx="2" fill="#161b22"/>
<rect x="340" y="103" width="13" height="13" rx="2" fill="#39d353"/>
<rect x="340" y="119" width="13" height="13" rx="2" fill="#0e4429"/>
<rect x="340" y="135" width="13" height="13" rx="2" fill="#26a641"/>
<rect x="340" y="151" width="13" height="13" rx="2" fill="#161b22"/>
<rect x="356" y="55" width="13" height="13" rx="2" fill="#161b22"/>
<rect x="356" y="71" width="13" height="13" rx="2" fill="#0e4429"/>
<rect x="356" y="87" width="13" height="13" rx="2" fill="#0e4429"/>
<rect x="356" y="103" width="13" height="13" rx="2" fill="#0e4429"/>
<rect x="356" y="119" width="13" height="13" rx="2" fill="#006d32"/>
<rect x="356" y="135" width="13" height="13" rx="2" fill="#006d32"/>
<rect x="356" y="151" width="13" height="13" rx="2" fill="#39d353"/>
<rect x="372" y="55" width="13" height="13" rx="2" fill="#0e4429"/>
<rect x="372" y="71" width="13" height="13" rx="2" fill="#161b22"/>
<rect x="372" y="87" width="13" height="13" rx="2" fill="#26a641"/>
<rect x="372" y="103" width="13" height="13" rx="2" fill="#161b22"/>
<rect x="372" y="119" width="13" height="13" rx="2" fill="#0e4429"/>
<rect x="372" y="135" width="13" height="13" rx="2" fill="#0e4429"/>
<rect x="372" y="151" width="13" height="13" rx="2" fill="#161b22"/>
<rect x="388" y="55" width="13" height="13" rx="2" fill="#161b22"/>
<rect x="388" y="71" width="13" height="13" rx="2" fill="#39d353"/>
<rect x="388" y="87" width="13" height="13" rx="2" fill="#26a641"/>
<rect x="388" y="103" width="13" height="13" rx="2" fill="#161b22"/>
<rect x="388" y="119" width="13" height="13" rx="2" fill="#39d353"/>
<rect x="388" y="135" width="13" height="13" rx="2" fill="#39d353"/>
<rect x="388" y="151" width="13" height="13" rx="2" fill="#26a641"/>
<rect x="404" y="55" width="13" height="13" rx="2" fill="#0e4429"/>
<rect x="404" y="71" width="13" height="13" rx="2" fill="#161b22"/>
<rect x="404" y="87" width="13" height="13" rx="2" fill="#0e4429"/>
<rect x="404" y="103" width="13" height="13" rx="2" fill="#161b22"/>
<rect x="404" y="119" width="13" height="13" rx="2" fill="#0e4429"/>
<rect x="404" y="135" width="13" height="13" rx="2" fill="#39d353"/>
<rect x="404" y="151" width="13" height="13" rx="2" fill="#26a641"/>
<rect x="420" y="55" width="13" height="13" rx="2" fill="#0e4429"/>
<rect x="420" y="71" width="13" height="13" rx="2" fill="#39d353"/>
<rect x="420" y="87" width="13" height="13" rx="2" fill="#0e4429"/>
<rect x="420" y="103" width="13" height="13" rx="2" fill="#006d32"/>
<rect x="420" y="119" width="13" height="13" rx="2" fill="#161b22"/>
<rect x="420" y="135" width="13" height="13" rx="2" fill="#161b22"/>
<rect x="420" y="151" width="13" height="13" rx="2" fill="#39d353"/>
<rect x="436" y="55" width="13" height="13" rx="2" fill="#0e4429"/>
<rect x="436" y="71" width="13" height="13" rx="2" fill="#006d32"/>
<rect x="436" y="87" width="13" height="13" rx="2" fill="#161b22"/>
<rect x="436" y="103" width="13" height="13" rx="2" fill="#0e4429"/>
<rect x="436" y="119" width="13" height="13" rx="2" fill="#0e4429"/>
<rect x="436" y="135" width="13" height="13" rx="2" fill="#26a641"/>
<rect x="436" y="151" width="13" height="13" rx="2" fill="#39d353"/>
<rect x="452" y="55" width="13" height="13" rx="2" fill="#161b22"/>
<rect x="452" y="71" width="13" height="13" rx="2" fill="#0e4429"/>
<rect x="452" y="87" width="13" height="13" rx="2" fill="#006d32"/>
<rect x="452" y="103" width="13" height="13" rx="2" fill="#161b22"/>
<rect x="452" y="119" width="13" height="13" rx="2" fill="#161b22"/>
<rect x="452" y="135" width="13" height="13" rx="2" fill="#26a641"/>
<rect x="452" y="151" width="13" height="13" rx="2" fill="#0e4429"/>
<rect x="468" y="55" width="13" height="13" rx="2" fill="#006d32"/>
<rect x="468" y="71" width="13" height="13" rx="2" fill="#0e4429"/>
<rect x="468" y="87" width="13" height="13" rx="2" fill="#0e4429"/>
<rect x="468" y="103" width="13" height="13" rx="2" fill="#0e4429"/>
<rect x="468" y="119" width="13" height="13" rx="2" fill="#39d353"/>
<rect x="468" y="135" width="13" height="13" rx="2" fill="#006d32"/>
<rect x="468" y="151" width="13" height="13" rx="2" fill="#161b22"/>
<rect x="484" y="55" width="13" height="13" rx="2" fill="#0e4429"/>
<rect x="484" y="71" width="13" height="13" rx="2" fill="#006d32"/>
<rect x="484" y="87" width="13" height="13" rx="2" fill="#161b22"/>
<rect x="484" y="103" width="13" height="13" rx="2" fill="#161b22"/>
<rect x="484" y="119" width="13" height="13" rx="2" fill="#006d32"/>
<rect x="484" y="135" width="13" height="13" rx="2" fill="#161b22"/>
<rect x="484" y="151" width="13" height="13" rx="2" fill="#0e4429"/>
<rect x="500" y="55" width="13" height="13" rx="2" fill="#39d353"/>
<rect x="500" y="71" width="13" height="13" rx="2" fill="#161b22"/>
<rect x="500" y="87" width="13" height="13" rx="2" fill="#161b22"/>
<rect x="500" y="103" width="13" height="13" rx="2" fill="#161b22"/>
<rect x="500" y="119" width="13" height="13" rx="2" fill="#39d353"/>
<rect x="500" y="135" width="13" height="13" rx="2" fill="#26a641"/>
<rect x="500" y="151" width="13" height="13" rx="2" fill="#161b22"/>
<rect x="516" y="55" width="13" height="13" rx="2" fill="#26a641"/>
<rect x="516" y="71" width="13" height="13" rx="2" fill="#006d32"/>
<rect x="516" y="87" width="13" height="13" rx="2" fill="#39d353"/>
<rect x="516" y="103" width="13" height="13" rx="2" fill="#161b22"/>
<rect x="516" y="119" width="13" height="13" rx="2" fill="#26a641"/>
<rect x="516" y="135" width="13" height="13" rx="2" fill="#006d32"/>
<rect x="516" y="151" width="13" height="13" rx="2" fill="#39d353"/>
<rect x="532" y="55" width="13" height="13" rx="2" fill="#161b22"/>
<rect x="532" y="71" width="13" height="13" rx="2" fill="#161b22"/>
<rect x="532" y="87" width="13" height="13" rx="2" fill="#0e4429"/>
<rect x="532" y="103" width="13" height="13" rx="2" fill="#161b22"/>
<rect x="532" y="119" width="13" height="13" rx="2" fill="#006d32"/>
<rect x="532" y="135" width="13" height="13" rx="2" fill="#006d32"/>
<rect x="532" y="151" width="13" height="13" rx="2" fill="#161b22"/>
<rect x="548" y="55" width="13" height="13" rx="2" fill="#006d32"/>
<rect x="548" y="71" width="13" height="13" rx="2" fill="#161b22"/>
<rect x="548" y="87" width="13" height="13" rx="2" fill="#0e4429"/>
<rect x="548" y="103" width="13" height="13" rx="2" fill="#39d353"/>
<rect x="548" y="119" width="13" height="13" rx="2" fill="#161b22"/>
<rect x="548" y="135" width="13" height="13" rx="2" fill="#0e4429"/>
<rect x="548" y="151" width="13" height="13" rx="2" fill="#161b22"/>
<rect x="564" y="55" width="13" height="13" rx="2" fill="#161b22"/>
<rect x="564" y="71" width="13" height="13" rx="2" fill="#006d32"/>
<rect x="564" y="87" width="13" height="13" rx="2" fill="#006d32"/>
<rect x="564" y="103" width="13" height="13" rx="2" fill="#161b22"/>
<rect x="564" y="119" width="13" height="13" rx="2" fill="#006d32"/>
<rect x="564" y="135" width="13" height="13" rx="2" fill="#0e4429"/>
<rect x="564" y="151" width="13" height="13" rx="2" fill="#0e4429"/>
<rect x="580" y="55" width="13" height="13" rx="2" fill="#161b22"/>
<rect x="580" y="71" width="13" height="13" rx="2" fill="#161b22"/>
<rect x="580" y="87" width="13" height="13" rx="2" fill="#26a641"/>
<rect x="580" y="103" width="13" height="13" rx="2" fill="#0e4429"/>
<rect x="580" y="119" width="13" height="13" rx="2" fill="#26a641"/>
<rect x="580" y="135" width="13" height="13" rx="2" fill="#161b22"/>
<rect x="580" y="151" width="13" height="13" rx="2" fill="#161b22"/>
<rect x="596" y="55" width="13" height="13" rx="2" fill="#161b22"/>
<rect x="596" y="71" width="13" height="13" rx="2" fill="#26a641"/>
<rect x="596" y="87" width="13" height="13" rx="2" fill="#26a641"/>
<rect x="596" y="103" width="13" height="13" rx="2" fill="#161b22"/>
<rect x="596" y="119" width="13" height="13" rx="2" fill="#161b22"/>
<rect x="596" y="135" width="13" height="13" rx="2" fill="#161b22"/>
<rect x="596" y="151" width="13" height="13" rx="2" fill="#26a641"/>
<rect x="612" y="55" width="13" height="13" rx="2" fill="#0e4429"/>
<rect x="612" y="71" width="13" height="13" rx="2" fill="#006d32"/>
<rect x="612" y="87" width="13" height="13" rx="2" fill="#161b22"/>
<rect x="612" y="103" width="13" height="13" rx="2" fill="#39d353"/>
<rect x="612" y="119" width="13" height="13" rx="2" fill="#39d353"/>
<rect x="612" y="135" width="13" height="13" rx="2" fill="#26a641"/>
<rect x="612" y="151" width="13" height="13" rx="2" fill="#006d32"/>
<rect x="628" y="55" width="13" height="13" rx="2" fill="#161b22"/>
<rect x="628" y="71" width="13" height="13" rx="2" fill="#39d353"/>
<rect x="628" y="87" width="13" height="13" rx="2" fill="#26a641"/>
<rect x="628" y="103" width="13" height="13" rx="2" fill="#161b22"/>
<rect x="628" y="119" width="13" height="13" rx="2" fill="#26a641"/>
<rect x="628" y="135" width="13" height="13" rx="2" fill="#26a641"/>
<rect x="628" y="151" width="13" height="13" rx="2" fill="#161b22"/>
<rect x="644" y="55" width="13" height="13" rx="2" fill="#26a641"/>
<rect x="644" y="71" width="13" height="13" rx="2" fill="#161b22"/>
<rect x="644" y="87" width="13" height="13" rx="2" fill="#26a641"/>
<rect x="644" y="103" width="13" height="13" rx="2" fill="#161b22"/>
<rect x="644" y="119" width="13" height="13" rx="2" fill="#161b22"/>
<rect x="644" y="135" width="13" height="13" rx="2" fill="#161b22"/>
<rect x="644" y="151" width="13" height="13" rx="2" fill="#26a641"/>
<rect x="660" y="55" width="13" height="13" rx="2" fill="#161b22"/>
<rect x="660" y="71" width="13" height="13" rx="2" fill="#006d32"/>
<rect x="660" y="87" width="13" height="13" rx="2" fill="#0e4429"/>
<rect x="660" y="103" width="13" height="13" rx="2" fill="#39d353"/>
<rect x="660" y="119" width="13" height="13" rx="2" fill="#39d353"/>
<rect x="660" y="135" width="13" height="13" rx="2" fill="#39d353"/>
<rect x="660" y="151" width="13" height="13" rx="2" fill="#39d353"/>
<rect x="676" y="55" width="13" height="13" rx="2" fill="#161b22"/>
<rect x="676" y="71" width="13" height="13" rx="2" fill="#0e4429"/>
<rect x="676" y="87" width="13" height="13" rx="2" fill="#006d32"/>
<rect x="676" y="103" width="13" height="13" rx="2" fill="#161b22"/>
<rect x="676" y="119" width="13" height="13" rx="2" fill="#006d32"/>
<rect x="676" y="135" width="13" height="13" rx="2" fill="#0e4429"/>
<rect x="676" y="151" width="13" height="13" rx="2" fill="#0e4429"/>
<rect x="692" y="55" width="13" height="13" rx="2" fill="#0e4429"/>
<rect x="692" y="71" width="13" height="13" rx="2" fill="#161b22"/>
<rect x="692" y="87" width="13" height="13" rx="2" fill="#006d32"/>
<rect x="692" y="103" width="13" height="13" rx="2" fill="#161b22"/>
<rect x="692" y="119" width="13" height="13" rx="2" fill="#39d353"/>
<rect x="692" y="135" width="13" height="13" rx="2" fill="#006d32"/>
<rect x="692" y="151" width="13" height="13" rx="2" fill="#006d32"/>
<rect x="708" y="55" width="13" height="13" rx="2" fill="#006d32"/>
<rect x="708" y="71" width="13" height="13" rx="2" fill="#0e4429"/>
<rect x="708" y="87" width="13" height="13" rx="2" fill="#161b22"/>
<rect x="708" y="103" width="13" height="13" rx="2" fill="#006d32"/>
<rect x="708" y="119" width="13" height="13" rx="2" fill="#161b22"/>
<rect x="708" y="135" width="13" height="13" rx="2" fill="#161b22"/>
<rect x="708" y="151" width="13" height="13" rx="2" fill="#26a641"/>
<rect x="724" y="55" width="13" height="13" rx="2" fill="#161b22"/>
<rect x="724" y="71" width="13" height="13" rx="2" fill="#161b22"/>
<rect x="724" y="87" width="13" height="13" rx="2" fill="#0e4429"/>
<rect x="724" y="103" width="13" height="13" rx="2" fill="#0e4429"/>
<rect x="724" y="119" width="13" height="13" rx="2" fill="#161b22"/>
<rect x="724" y="135" width="13" height="13" rx="2" fill="#161b22"/>
<rect x="724" y="151" width="13" height="13" rx="2" fill="#0e4429"/>
<rect x="740" y="55" width="13" height="13" rx="2" fill="#39d353"/>
<rect x="740" y="71" width="13" height="13" rx="2" fill="#39d353"/>
<rect x="740" y="87" width="13" height="13" rx="2" fill="#161b22"/>
<rect x="740" y="103" width="13" height="13" rx="2" fill="#0e4429"/>
<rect x="740" y="119" width="13" height="13" rx="2" fill="#161b22"/>
<rect x="740" y="135" width="13" height="13" rx="2" fill="#161b22"/>
<rect x="740" y="151" width="13" height="13" rx="2" fill="#0e4429"/>
<rect x="756" y="55" width="13" height="13" rx="2" fill="#0e4429"/>
<rect x="756" y="71" width="13" height="13" rx="2" fill="#006d32"/>
<rect x="756" y="87" width="13" height="13" rx="2" fill="#0e4429"/>
<rect x="756" y="103" width="13" height="13" rx="2" fill="#0e4429"/>
<rect x="756" y="119" width="13" height="13" rx="2" fill="#161b22"/>
<rect x="756" y="135" width="13" height="13" rx="2" fill="#0e4429"/>
<rect x="756" y="151" width="13" height="13" rx="2" fill="#39d353"/>
<rect x="772" y="55" width="13" height="13" rx="2" fill="#161b22"/>
<rect x="772" y="71" width="13" height="13" rx="2" fill="#161b22"/>
<rect x="772" y="87" width="13" height="13" rx="2" fill="#0e4429"/>
<rect x="772" y="103" width="13" height="13" rx="2" fill="#006d32"/>
<rect x="772" y="119" width="13" height="13" rx="2" fill="#161b22"/>
<rect x="772" y="135" width="13" height="13" rx="2" fill="#26a641"/>
<rect x="772" y="151" width="13" height="13" rx="2" fill="#006d32"/>
<rect x="788" y="55" width="13" height="13" rx="2" fill="#161b22"/>
<rect x="788" y="71" width="13" height="13" rx="2" fill="#161b22"/>
<rect x="788" y="87" width="13" height="13" rx="2" fill="#161b22"/>
<rect x="788" y="103" width="13" height="13" rx="2" fill="#161b22"/>
<rect x="788" y="119" width="13" height="13" rx="2" fill="#0e4429"/>
<rect x="788" y="135" width="13" height="13" rx="2" fill="#26a641"/>
<rect x="788" y="151" width="13" height="13" rx="2" fill="#0e4429"/>
<rect x="804" y="55" width="13" height="13" rx="2" fill="#006d32"/>
<rect x="804" y="71" width="13" height="13" rx="2" fill="#161b22"/>
<rect x="804" y="87" width="13" height="13" rx="2" fill="#006d32"/>
<rect x="804" y="103" width="13" height="13" rx="2" fill="#0e4429"/>
<rect x="804" y="119" width="13" height="13" rx="2" fill="#161b22"/>
<rect x="804" y="135" width="13" height="13" rx="2" fill="#006d32"/>
<rect x="804" y="151" width="13" height="13" rx="2" fill="#161b22"/>
<rect x="820" y="55" width="13" height="13" rx="2" fill="#006d32"/>
<rect x="820" y="71" width="13" height="13" rx="2" fill="#006d32"/>
<rect x="820" y="87" width="13" height="13" rx="2" fill="#161b22"/>
<rect x="820" y="103" width="13" height="13" rx="2" fill="#0e4429"/>
<rect x="820" y="119" width="13" height="13" rx="2" fill="#161b22"/>
<rect x="820" y="135" width="13" height="13" rx="2" fill="#39d353"/>
<rect x="820" y="151" width="13" height="13" rx="2" fill="#161b22"/>
<rect x="836" y="55" width="13" height="13" rx="2" fill="#161b22"/>
<rect x="836" y="71" width="13" height="13" rx="2" fill="#26a641"/>
<rect x="836" y="87" width="13" height="13" rx="2" fill="#26a641"/>
<rect x="836" y="103" width="13" height="13" rx="2" fill="#39d353"/>
<rect x="836" y="119" width="13" height="13" rx="2" fill="#39d353"/>
<rect x="836" y="135" width="13" height="13" rx="2" fill="#006d32"/>
<rect x="836" y="151" width="13" height="13" rx="2" fill="#006d32"/>
<text x="26" y="163" text-anchor="middle" font-size="11" class="ghost s1">👻
<animate attributeName="opacity" values="1;0;1" dur="3.5s" repeatCount="indefinite"/>
</text>
<text x="58" y="115" text-anchor="middle" font-size="11" class="ghost s2">👻
<animate attributeName="opacity" values="1;0;1" dur="4.5s" repeatCount="indefinite"/>
</text>
<text x="362" y="163" text-anchor="middle" font-size="11" class="ghost s3">👻
<animate attributeName="opacity" values="1;0;1" dur="3.6s" repeatCount="indefinite"/>
</text>
<text x="442" y="163" text-anchor="middle" font-size="11" class="ghost s4">👻
<animate attributeName="opacity" values="1;0;1" dur="4.7s" repeatCount="indefinite"/>
</text>
<text x="522" y="163" text-anchor="middle" font-size="11" class="ghost s5">👻
<animate attributeName="opacity" values="1;0;1" dur="4.2s" repeatCount="indefinite"/>
</text>
<text x="618" y="147" text-anchor="middle" font-size="11" class="ghost s6">👻
<animate attributeName="opacity" values="1;0;1" dur="3.4s" repeatCount="indefinite"/>
</text>
<text x="634" y="131" text-anchor="middle" font-size="11" class="ghost s7">👻
<animate attributeName="opacity" values="1;0;1" dur="2.8s" repeatCount="indefinite"/>
</text>
<text x="666" y="131" text-anchor="middle" font-size="11" class="ghost s8">👻
<animate attributeName="opacity" values="1;0;1" dur="2.7s" repeatCount="indefinite"/>
</text>
<text x="794" y="147" text-anchor="middle" font-size="11" class="ghost s9">👻
<animate attributeName="opacity" values="1;0;1" dur="3.9s" repeatCount="indefinite"/>
</text>
<rect x="20" y="235" width="860" height="35" rx="8" fill="#0d1117" stroke="#8b5cf6" stroke-width="1" opacity="0.8"/>
<text x="30" y="257" font-family="monospace" font-size="12" fill="#c4b5fd">👻 Ghosts Spotted: 9  |  📦 Hunt Area: 364 cells  |  🕐 2026-06-13 14:57 UTC UTC</text>
<text x="450" y="305" text-anchor="middle" font-family="monospace" font-size="9" fill="#6b7280">👻 Ghosts hide in active contribution cells. Keep committing to hunt them all!</text>
</svg>